<svg xmlns="http://www.w3.org/2000/svg" version="1.1" xmlns:xlink="http://www.w3.org/1999/xlink" xmlns:svgjs="http://svgjs.dev/svgjs" width="1000" height="1000"><g clip-path="url(#SvgjsClipPath1044)"><rect width="1000" height="1000" fill="#ffffff"></rect><g transform="matrix(16.666666666666668,0,0,16.666666666666668,100,100)"><svg xmlns="http://www.w3.org/2000/svg" version="1.1" xmlns:xlink="http://www.w3.org/1999/xlink" xmlns:svgjs="http://svgjs.dev/svgjs" width="48" height="48"><svg width="48" height="48" viewBox="0 0 48 48" fill="none" xmlns="http://www.w3.org/2000/svg">
<path d="M22.3773 9C24.7401 9 26.805 9.46831 28.5718 10.4049C30.3386 11.3415 31.7009 12.6613 32.6588 14.3643C33.638 16.0459 34.1276 17.9937 34.1276 20.2075C34.1276 22.4 33.638 24.3478 32.6588 26.0507C31.7009 27.7536 30.3279 29.0734 28.5398 30.01C26.773 30.9467 24.7188 31.415 22.3773 31.415H13.9797V9H22.3773ZM22.0261 26.6893C24.0909 26.6893 25.698 26.1252 26.8475 24.997C27.997 23.8688 28.5718 22.2723 28.5718 20.2075C28.5718 18.1427 27.997 16.5355 26.8475 15.386C25.698 14.2365 24.0909 13.6618 22.0261 13.6618H19.4397V26.6893H22.0261Z" fill="black"></path>
<path fill-rule="evenodd" clip-rule="evenodd" d="M7 24.415C7.55228 24.415 8 24.8628 8 25.415V36.415H39V25.415C39 24.8628 39.4477 24.415 40 24.415C40.5523 24.415 41 24.8628 41 25.415V38.415H6V25.415C6 24.8628 6.44772 24.415 7 24.415Z" fill="black"></path>
</svg></svg></g></g><defs><clipPath id="SvgjsClipPath1044"><rect width="1000" height="1000" x="0" y="0" rx="350" ry="350"></rect></clipPath></defs></svg>